<svg width="22" height="26" viewBox="0 0 22 26" fill="none" xmlns="http://www.w3.org/2000/svg">
<g id="Group 42">
<path id="Combined Shape Copy" opacity="0.3" fill-rule="evenodd" clip-rule="evenodd" d="M2.19481 0H10.4247C10.7794 0 11.1226 0.125684 11.3934 0.35474L17.196 5.26273C17.5329 5.54774 17.7273 5.96667 17.7273 6.40799V21.3712C17.7273 23.4873 17.7031 23.6364 15.5325 23.6364H2.19481C0.0241656 23.6364 0 23.4873 0 21.3712V2.26515C0 0.149057 0.0241656 0 2.19481 0ZM4.72727 14C4.72727 13.4477 5.17498 13 5.72727 13H14.3636C14.9159 13 15.3636 13.4477 15.3636 14V14.3636C15.3636 14.9159 14.9159 15.3636 14.3636 15.3636H5.72727C5.17498 15.3636 4.72727 14.9159 4.72727 14.3636V14ZM5.72727 17.7272C5.17498 17.7272 4.72727 18.1749 4.72727 18.7272V19.0909C4.72727 19.6431 5.17498 20.0909 5.72727 20.0909H9.63636C10.1886 20.0909 10.6364 19.6431 10.6364 19.0909V18.7272C10.6364 18.1749 10.1886 17.7272 9.63636 17.7272H5.72727Z" fill="black"/>
<path id="Combined Shape" fill-rule="evenodd" clip-rule="evenodd" d="M4.55857 2.36371H13.9703C14.325 2.36371 14.6682 2.48939 14.939 2.71845L20.7416 7.62644C21.0785 7.91145 21.2729 8.33038 21.2729 8.7717V23.7349C21.2729 25.851 21.2487 26.0001 19.0781 26.0001H4.55857C2.38794 26.0001 2.36377 25.851 2.36377 23.7349V4.62886C2.36377 2.51277 2.38794 2.36371 4.55857 2.36371ZM4.72739 13.9999C4.72739 13.4477 5.17511 12.9999 5.72739 12.9999H14.3638C14.916 12.9999 15.3638 13.4477 15.3638 13.9999V14.3636C15.3638 14.9159 14.916 15.3636 14.3638 15.3636H5.72739C5.17511 15.3636 4.72739 14.9159 4.72739 14.3636V13.9999ZM5.72739 17.7272C5.17511 17.7272 4.72739 18.1749 4.72739 18.7272V19.0908C4.72739 19.6431 5.17511 20.0908 5.72739 20.0908H9.63648C10.1888 20.0908 10.6365 19.6431 10.6365 19.0908V18.7272C10.6365 18.1749 10.1888 17.7272 9.63648 17.7272H5.72739Z" fill="black"/>
</g>
</svg>
