<svg width="19" height="26" viewBox="0 0 19 26" fill="none" xmlns="http://www.w3.org/2000/svg">
<g id="Group 44">
<path id="Combined Shape" opacity="0.3" fill-rule="evenodd" clip-rule="evenodd" d="M4.56672 2.28339H2C0.895431 2.28339 0 3.17882 0 4.28339V23.1171C0 24.2216 0.895433 25.1171 2 25.1171H16.2669C17.3715 25.1171 18.2669 24.2216 18.2669 23.1171V4.28339C18.2669 3.17882 17.3715 2.28339 16.2669 2.28339H13.7002V2.85421C13.7002 3.80001 12.9335 4.56673 11.9877 4.56673H6.27924C5.33344 4.56673 4.56672 3.80001 4.56672 2.85421V2.28339Z" fill="black"/>
<path id="Combined Shape_2" fill-rule="evenodd" clip-rule="evenodd" d="M10.2752 1.14168L12.0586 1.14169C12.3347 1.14169 12.5586 1.36554 12.5586 1.64169V2.92505C12.5586 3.2012 12.3347 3.42505 12.0586 3.42505H6.2085C5.93235 3.42505 5.7085 3.2012 5.7085 2.92505V1.64169C5.7085 1.36554 5.93235 1.14169 6.2085 1.14169H7.99187C7.99187 1.14169 7.99187 1.14168 7.99187 1.14168C7.99187 0.511149 8.50302 0 9.13355 0C9.76409 0 10.2752 0.511149 10.2752 1.14168Z" fill="black"/>
<rect id="Rectangle 152" opacity="0.3" x="3.42505" y="10.2751" width="5.70842" height="2.28337" rx="1.14168" fill="black"/>
<rect id="Rectangle 152 Copy" opacity="0.3" x="3.42505" y="14.8419" width="10.2752" height="2.28337" rx="1.14168" fill="black"/>
</g>
</svg>
