<svg width="66" height="70" viewBox="0 0 66 70" fill="none" xmlns="http://www.w3.org/2000/svg">
<g id="Group 47">
<path id="Path 107" fill-rule="evenodd" clip-rule="evenodd" d="M29.6518 21.2639C29.6719 21.0034 29.8891 20.8022 30.1504 20.8022H32.3599C32.6167 20.8022 32.8318 20.9969 32.8574 21.2525L34.3748 36.4272L45.0604 42.5333C45.2162 42.6223 45.3124 42.788 45.3124 42.9674V45.1476C45.3124 45.4773 44.9989 45.7167 44.6808 45.63L28.5235 41.2235C28.2921 41.1604 28.1381 40.9419 28.1565 40.7027L29.6518 21.2639Z" fill="#FABB18"/>
<path id="Combined Shape" fill-rule="evenodd" clip-rule="evenodd" d="M14.8957 0.178923C14.6316 -0.135826 14.1217 -0.0153556 14.0264 0.384307L9.67873 18.6113C9.60105 18.937 9.85912 19.2455 10.1934 19.2266L28.9437 18.164C29.3546 18.1407 29.563 17.6587 29.2985 17.3434L24.2148 11.2849C26.9449 10.352 29.8399 9.86474 32.8125 9.86474C47.4826 9.86474 59.375 21.7572 59.375 36.4272C59.375 51.0973 47.4826 62.9897 32.8125 62.9897C18.1424 62.9897 6.25 51.0973 6.25 36.4272C6.25 33.9645 6.5835 31.5524 7.23378 29.2341L1.21604 27.5462C0.423733 30.3708 0 33.3495 0 36.4272C0 54.5491 14.6907 69.2397 32.8125 69.2397C50.9343 69.2397 65.625 54.5491 65.625 36.4272C65.625 18.3054 50.9343 3.61474 32.8125 3.61474C28.2542 3.61474 23.913 4.54421 19.9681 6.22397L14.8957 0.178923Z" fill="#FABB18"/>
</g>
</svg>
