<svg width="108" height="53" viewBox="0 0 108 53" fill="none" xmlns="http://www.w3.org/2000/svg">
<path d="M9.9 17.375C10.4833 18.3583 11.0667 19.2333 11.65 20C12.25 20.75 13.0333 21.675 14 22.775C14.1167 22.8917 14.175 23.025 14.175 23.175C14.175 23.4083 14.0417 23.6083 13.775 23.775C13.525 23.9417 13.2167 24.025 12.85 24.025C12.3333 24.025 11.775 23.8083 11.175 23.375C10.6417 22.9917 10.1667 22.4833 9.75 21.85C9.33333 21.2167 8.85 20.3917 8.3 19.375C7.86667 18.5917 7.60833 18.1333 7.525 18C6.875 18.2667 5.85833 18.4333 4.475 18.5C4.475 19.0667 4.525 19.8333 4.625 20.8C4.725 21.8 4.775 22.525 4.775 22.975C4.775 23.275 4.625 23.525 4.325 23.725C4.04167 23.925 3.71667 24.025 3.35 24.025C2.91667 24.025 2.58333 23.85 2.35 23.5C2.11667 23.0333 1.96667 22.475 1.9 21.825C1.83333 21.175 1.8 20.4 1.8 19.5C1.8 18.55 1.85833 17.475 1.975 16.275C2.075 14.9417 2.125 13.9583 2.125 13.325C2.125 12.8083 2.075 12.1167 1.975 11.25C1.95833 11.1 1.93333 10.8417 1.9 10.475C1.86667 10.1083 1.85 9.775 1.85 9.475C1.85 9.24167 1.93333 9.04167 2.1 8.875C2.28333 8.69167 2.475 8.56667 2.675 8.5C4.025 8.28333 5.34167 8.175 6.625 8.175C8.80833 8.175 10.6167 8.58333 12.05 9.4C13.4833 10.2167 14.2 11.4583 14.2 13.125C14.2 13.6417 14.0833 14.1417 13.85 14.625C13.6333 15.0917 13.3333 15.4833 12.95 15.8C11.9333 16.5833 10.9167 17.1083 9.9 17.375ZM11.575 13.05C11.575 12.25 11.15 11.6 10.3 11.1C9.45 10.5833 8.24167 10.325 6.675 10.325C5.975 10.325 5.28333 10.4083 4.6 10.575L4.625 11.85C4.625 12.5833 4.6 13.3 4.55 14C4.5 14.7 4.475 15.45 4.475 16.25C4.75833 16.1833 5.05833 16.1417 5.375 16.125C5.69167 16.0917 5.9 16.0667 6 16.05C6.73333 15.9833 7.3 15.9 7.7 15.8C8.45 15.5667 9.06667 15.3583 9.55 15.175C10.05 14.975 10.5083 14.7 10.925 14.35C11.3583 13.9833 11.575 13.55 11.575 13.05ZM27.1684 15.575C27.035 15.575 26.91 15.525 26.7934 15.425C26.6934 15.3083 26.6434 15.175 26.6434 15.025C26.6434 14.6417 26.81 14.2833 27.1434 13.95C27.2434 13.9 27.4434 13.8167 27.7434 13.7C28.0434 13.5833 28.31 13.525 28.5434 13.525C29.1767 13.525 29.6934 13.7 30.0934 14.05C30.4934 14.3833 30.6934 14.8667 30.6934 15.5C30.6934 15.6833 30.66 16.075 30.5934 16.675C30.5267 17.375 30.4934 17.9167 30.4934 18.3C30.4934 19.4667 30.6517 20.4083 30.9684 21.125C31.085 21.3583 31.2684 21.5417 31.5184 21.675C31.7684 21.8083 31.9934 21.875 32.1934 21.875C32.6767 21.875 33.0684 21.7917 33.3684 21.625C33.6684 21.4583 33.9934 21.1917 34.3434 20.825C34.6934 20.4583 34.9184 20.0417 35.0184 19.575C35.135 19.1083 35.2184 18.4667 35.2684 17.65C35.3017 17.1167 35.335 16.725 35.3684 16.475C35.4517 15.675 35.4934 14.9917 35.4934 14.425C35.4934 14.0583 35.5934 13.7583 35.7934 13.525C35.9934 13.275 36.2684 13.15 36.6184 13.15C36.8184 13.15 37.0434 13.2167 37.2934 13.35C37.56 13.4667 37.735 13.6083 37.8184 13.775C37.9184 13.9417 37.9684 14.2167 37.9684 14.6C37.9684 14.8 37.9434 14.9917 37.8934 15.175C37.7767 15.5917 37.7184 16.0917 37.7184 16.675L37.7434 17.975C37.7434 19.1583 37.8267 20.0333 37.9934 20.6C38.0767 20.8667 38.1934 21.1417 38.3434 21.425C38.4934 21.6917 38.635 21.9167 38.7684 22.1C39.1017 22.4667 39.3184 22.725 39.4184 22.875C39.5184 23.0083 39.5684 23.1417 39.5684 23.275C39.5684 23.475 39.4684 23.6667 39.2684 23.85C39.085 24.0167 38.885 24.1 38.6684 24.1C38.0517 24.1 37.5184 23.8917 37.0684 23.475C36.6184 23.0583 36.285 22.5167 36.0684 21.85C35.5017 22.5 34.9767 23.025 34.4934 23.425C34.16 23.6583 33.7517 23.8333 33.2684 23.95C32.785 24.05 32.3017 24.1 31.8184 24.1C31.1684 24.1 30.51 23.8333 29.8434 23.3C29.1767 22.7667 28.7267 22.15 28.4934 21.45C28.4767 21.4167 28.4267 21.2833 28.3434 21.05C28.2767 20.8167 28.2434 20.4667 28.2434 20C28.2434 19.3833 28.2767 18.6083 28.3434 17.675C28.3934 17.075 28.4184 16.525 28.4184 16.025C28.4184 15.875 28.36 15.75 28.2434 15.65C28.1434 15.55 28.0267 15.5 27.8934 15.5C27.7934 15.5 27.6767 15.5167 27.5434 15.55C27.4267 15.5667 27.3017 15.575 27.1684 15.575ZM41.4617 15.35C41.2284 15.3167 41.0367 15.2167 40.8867 15.05C40.7534 14.8833 40.6867 14.6833 40.6867 14.45C40.6867 14.3333 40.7117 14.2083 40.7617 14.075C40.8284 13.9417 40.9201 13.825 41.0367 13.725C41.2534 13.5083 41.8367 13.4 42.7867 13.4C42.9201 12.75 42.9867 12.0917 42.9867 11.425C42.9867 11.175 42.9784 10.9583 42.9617 10.775C42.9451 10.5917 42.9367 10.45 42.9367 10.35C42.9367 9.98333 43.0701 9.70833 43.3367 9.525C43.6201 9.34167 43.9367 9.25 44.2867 9.25C44.7201 9.25 45.0117 9.35833 45.1617 9.575C45.3284 9.79167 45.4117 10.1917 45.4117 10.775C45.4117 11.6417 45.3367 12.4917 45.1867 13.325C45.4534 13.325 45.8201 13.3083 46.2867 13.275C46.9201 13.2417 47.3784 13.225 47.6617 13.225C47.9451 13.225 48.1867 13.3 48.3867 13.45C48.6034 13.5833 48.7117 13.775 48.7117 14.025C48.7117 14.675 48.4201 15.0583 47.8367 15.175C47.2201 15.325 46.2617 15.4167 44.9617 15.45C44.9117 16.1 44.8867 16.8083 44.8867 17.575C44.8867 18.775 44.9617 19.7583 45.1117 20.525C45.2117 21.0583 45.3784 21.45 45.6117 21.7C45.8617 21.9333 46.2284 22.05 46.7117 22.05C46.9951 22.05 47.2867 21.975 47.5867 21.825C47.7867 21.7083 47.9701 21.65 48.1367 21.65C48.3701 21.65 48.5367 21.725 48.6367 21.875C48.7534 22.025 48.8117 22.225 48.8117 22.475C48.8117 22.9417 48.5617 23.3333 48.0617 23.65C47.5617 23.95 46.9201 24.1 46.1367 24.1C45.6534 24.1 45.1617 23.9833 44.6617 23.75C44.1784 23.5167 43.7701 23.225 43.4367 22.875C43.3867 22.825 43.2951 22.6333 43.1617 22.3C43.0284 21.9667 42.9117 21.6083 42.8117 21.225C42.6451 20.4417 42.5617 19.3417 42.5617 17.925C42.5617 17.3083 42.5951 16.4833 42.6617 15.45L41.4617 15.35ZM52.1361 7.95C52.7195 8 53.2278 8.15833 53.6611 8.425C54.0945 8.675 54.3111 9.05833 54.3111 9.575C54.3111 9.95833 54.1278 10.2667 53.7611 10.5C53.4111 10.7167 52.9861 10.825 52.4861 10.825C52.0028 10.825 51.6695 10.7 51.4861 10.45C51.3028 10.2 51.2111 9.94167 51.2111 9.675C51.2111 9.175 51.2611 8.75833 51.3611 8.425C51.4778 8.09167 51.7361 7.93333 52.1361 7.95ZM54.1361 19.025V19.75C54.1361 20.4 54.1528 21.0167 54.1861 21.6C54.2361 22.1667 54.2945 22.7417 54.3611 23.325C54.3611 23.525 54.2445 23.7083 54.0111 23.875C53.7778 24.025 53.5611 24.1 53.3611 24.1C53.0445 24.1 52.7195 24.0417 52.3861 23.925C52.0695 23.7917 51.8778 23.6333 51.8111 23.45C51.7111 22.9167 51.6611 22.4417 51.6611 22.025C51.6611 20.6583 51.6195 19.125 51.5361 17.425C51.4695 15.925 51.4361 14.875 51.4361 14.275C51.4361 13.975 51.5861 13.7167 51.8861 13.5C52.1861 13.2833 52.5028 13.175 52.8361 13.175C53.3195 13.175 53.6528 13.2833 53.8361 13.5C54.0361 13.7167 54.1361 14.0583 54.1361 14.525V19.025ZM57.0576 15.2C56.9243 15.1 56.816 15 56.7326 14.9C56.6493 14.7833 56.6076 14.5833 56.6076 14.3C56.6076 13.9833 56.716 13.7417 56.9326 13.575C57.166 13.3917 57.4326 13.3 57.7326 13.3C58.316 13.3 58.816 13.45 59.2326 13.75C59.666 14.05 59.9826 14.4667 60.1826 15C60.5493 14.3167 61.016 13.85 61.5826 13.6C62.1493 13.3333 62.9326 13.2 63.9326 13.2C64.3326 13.2 64.741 13.325 65.1576 13.575C65.591 13.8083 65.9826 14.1 66.3326 14.45C66.616 14.8167 66.8576 15.275 67.0576 15.825C67.2576 16.3583 67.3576 16.8417 67.3576 17.275C67.3576 17.525 67.341 17.9333 67.3076 18.5C67.2743 19.1 67.2576 19.575 67.2576 19.925C67.2576 21.0917 67.4826 21.8083 67.9326 22.075C67.9993 22.1083 68.1243 22.15 68.3076 22.2C68.491 22.25 68.6243 22.3 68.7076 22.35C68.8076 22.4 68.8576 22.475 68.8576 22.575C68.8743 22.975 68.7243 23.3083 68.4076 23.575C68.1076 23.825 67.741 23.95 67.3076 23.95C66.6576 23.95 66.1493 23.775 65.7826 23.425C65.416 23.075 65.1576 22.5417 65.0076 21.825C64.9243 21.5583 64.8826 21.1667 64.8826 20.65C64.8826 20.3667 64.8993 19.9083 64.9326 19.275C64.9826 18.775 65.0076 18.2417 65.0076 17.675C65.0076 17.0917 64.841 16.5833 64.5076 16.15C64.1743 15.7 63.716 15.475 63.1326 15.475C62.7826 15.475 62.416 15.5833 62.0326 15.8C61.6493 16 61.3826 16.25 61.2326 16.55C60.9826 17.0667 60.816 17.5917 60.7326 18.125C60.5326 19.1583 60.4326 20.15 60.4326 21.1C60.4326 21.3333 60.4493 21.7833 60.4826 22.45C60.4826 22.5 60.4826 22.625 60.4826 22.825C60.4826 23.0083 60.4576 23.1833 60.4076 23.35C60.3743 23.5167 60.3076 23.6667 60.2076 23.8C60.141 23.8667 60.016 23.9333 59.8326 24C59.6493 24.0667 59.491 24.1 59.3576 24.1C59.1243 24.1 58.8326 24 58.4826 23.8C58.1326 23.6 57.9243 23.375 57.8576 23.125L57.8326 22.775C57.8326 22.6417 57.8493 22.4417 57.8826 22.175C58.0826 21.0083 58.1826 19.9917 58.1826 19.125C58.1826 18.7417 58.1743 18.45 58.1576 18.25L58.1326 17.1C58.1326 16.75 58.0326 16.4167 57.8326 16.1C57.6326 15.7667 57.3743 15.4667 57.0576 15.2ZM70.3877 18.35C70.3877 17.75 70.496 17.1917 70.7127 16.675C70.9294 16.1417 71.246 15.5917 71.6627 15.025C72.0794 14.4583 72.6544 14.0167 73.3877 13.7C74.121 13.3667 74.921 13.2 75.7877 13.2C76.4544 13.2 77.096 13.3417 77.7127 13.625C78.346 13.8917 78.9127 14.225 79.4127 14.625C79.4794 14.7417 79.596 14.9583 79.7627 15.275C79.9294 15.575 80.046 15.85 80.1127 16.1C80.196 16.35 80.2377 16.6083 80.2377 16.875C80.2377 17.9917 79.8294 18.7417 79.0127 19.125C78.196 19.4917 77.1627 19.675 75.9127 19.675C74.6627 19.675 73.646 19.5917 72.8627 19.425C72.896 19.7417 72.9794 20.0583 73.1127 20.375C73.246 20.6917 73.4044 20.9333 73.5877 21.1C73.921 21.4167 74.246 21.625 74.5627 21.725C74.896 21.8083 75.3377 21.85 75.8877 21.85C76.721 21.85 77.371 21.6917 77.8377 21.375C78.271 21.0917 78.6044 20.95 78.8377 20.95C79.1544 20.95 79.396 21.05 79.5627 21.25C79.7294 21.4333 79.8127 21.675 79.8127 21.975C79.8127 22.6083 79.4044 23.125 78.5877 23.525C77.7877 23.925 76.8794 24.125 75.8627 24.125C75.0627 24.125 74.271 23.9833 73.4877 23.7C72.7044 23.4167 72.0794 23.0167 71.6127 22.5C71.296 21.9667 71.0127 21.3167 70.7627 20.55C70.5127 19.7833 70.3877 19.05 70.3877 18.35ZM75.8877 15.25C75.521 15.25 75.1377 15.3167 74.7377 15.45C74.3544 15.5667 74.0544 15.75 73.8377 16C73.571 16.2833 73.371 16.5417 73.2377 16.775C73.121 17.0083 73.046 17.3 73.0127 17.65C73.196 17.65 73.371 17.6583 73.5377 17.675C73.7044 17.6917 73.8627 17.7083 74.0127 17.725C74.746 17.7917 75.296 17.825 75.6627 17.825C76.396 17.825 76.9544 17.7167 77.3377 17.5C77.7377 17.2833 77.9377 16.9917 77.9377 16.625C77.9377 16.275 77.7127 15.9583 77.2627 15.675C76.8294 15.3917 76.371 15.25 75.8877 15.25Z" fill="black"/>
<path d="M25.3782 13.9244C26.425 15.1094 27.0019 16.6366 27 18.2177C26.9993 19.9413 26.3144 21.5941 25.0956 22.8129C23.8768 24.0317 22.224 24.7166 20.5004 24.7173C18.7767 24.7166 17.1238 24.0317 15.9049 22.8129C14.686 21.5942 14.0009 19.9414 14 18.2177C14 14.7691 16.6929 11.9437 20.0888 11.7313V10.8233H18.7823C18.2513 10.8233 18.2529 10 18.7823 10H22.2185C22.7495 10 22.7487 10.8233 22.2185 10.8233H20.912V11.7313C22.3498 11.821 23.7166 12.3877 24.7961 13.3416L25.7305 12.408C25.8087 12.3326 25.913 12.2905 26.0216 12.2905C26.1301 12.2905 26.2345 12.3326 26.3126 12.408C26.4764 12.5587 26.4649 12.8378 26.3126 12.9901L25.3782 13.9244ZM26.1767 18.2177C26.1761 16.7125 25.5778 15.269 24.5135 14.2047C23.4491 13.1403 22.0057 12.542 20.5004 12.5414C18.9951 12.5423 17.5518 13.1406 16.4873 14.2049C15.4228 15.2692 14.8243 16.7125 14.8233 18.2177C14.8239 19.7231 15.4223 21.1667 16.4868 22.2311C17.5514 23.2955 18.995 23.8936 20.5004 23.894C22.0057 23.8934 23.4491 23.2951 24.5135 22.2308C25.5778 21.1664 26.1761 19.723 26.1767 18.2177ZM20.912 18.2185C20.912 18.7495 20.0888 18.7479 20.0888 18.2185V14.346C20.0888 13.8158 20.912 13.8166 20.912 14.346V18.2185Z" fill="black"/>
<path d="M40.35 31.15C40.35 31.5833 40.3417 32.0917 40.325 32.675C40.3083 33.2417 40.2917 33.675 40.275 33.975C40.225 34.825 40.2 35.675 40.2 36.525C40.2 37.1583 40.225 37.8167 40.275 38.5C40.7917 37.75 41.35 37.2 41.95 36.85C42.55 36.5 43.275 36.325 44.125 36.325C44.7417 36.325 45.3167 36.6 45.85 37.15C46.3833 37.7 46.725 38.3417 46.875 39.075C46.925 39.725 46.95 40.5167 46.95 41.45C46.95 42.05 46.9833 42.8333 47.05 43.8C47.0833 44.1667 47.175 44.5083 47.325 44.825C47.4917 45.1417 47.725 45.3 48.025 45.3C48.175 45.3 48.2917 45.2917 48.375 45.275C48.475 45.2583 48.5667 45.25 48.65 45.25C48.8833 45.25 49.0417 45.3083 49.125 45.425C49.225 45.5417 49.275 45.7083 49.275 45.925C49.275 46.325 49.075 46.625 48.675 46.825C48.275 47.025 47.9083 47.125 47.575 47.125C46.375 47.125 45.55 46.625 45.1 45.625C44.85 45.0583 44.6917 44.325 44.625 43.425C44.5583 42.5083 44.525 41.4417 44.525 40.225C44.525 39.025 44.1167 38.425 43.3 38.425C42.85 38.425 42.3917 38.6667 41.925 39.15C41.475 39.6167 41.1 40.2417 40.8 41.025C40.5 41.7917 40.35 42.5917 40.35 43.425L40.375 46.025C40.375 46.3917 40.2333 46.6667 39.95 46.85C39.6667 47.0167 39.4 47.1 39.15 47.1C38.7833 47.1 38.45 46.9917 38.15 46.775C37.85 46.5417 37.7 46.2833 37.7 46C37.8167 44.75 37.875 42.6583 37.875 39.725C37.875 39.1917 37.8333 37.2167 37.75 33.8L37.675 31.5C37.675 31.1333 37.8417 30.8167 38.175 30.55C38.5083 30.2667 38.8833 30.125 39.3 30.125C39.6667 30.125 39.9333 30.2083 40.1 30.375C40.2667 30.5417 40.35 30.8 40.35 31.15ZM50.5771 41.7C50.5771 41.0667 50.6938 40.4333 50.9271 39.8C51.1605 39.15 51.4688 38.5583 51.8521 38.025C52.2355 37.4917 52.8438 37.0583 53.6771 36.725C54.5105 36.375 55.2521 36.2 55.9021 36.2C56.5688 36.2 57.2438 36.2917 57.9271 36.475C58.6271 36.6583 59.1105 36.9417 59.3771 37.325C59.9938 38.1917 60.3021 39.0417 60.3021 39.875C60.3021 40.325 60.2021 40.7083 60.0021 41.025C59.8188 41.3417 59.5521 41.6833 59.2021 42.05C58.9188 42.35 58.4688 42.55 57.8521 42.65C57.2521 42.75 56.6521 42.8 56.0521 42.8C55.6688 42.8 55.2021 42.7667 54.6521 42.7C54.1021 42.6167 53.5688 42.5167 53.0521 42.4C53.0855 42.7333 53.1688 43.0583 53.3021 43.375C53.4355 43.6917 53.5938 43.9333 53.7771 44.1C54.1105 44.4167 54.4521 44.6167 54.8021 44.7C55.1688 44.7833 55.6355 44.825 56.2021 44.825C56.8021 44.825 57.3605 44.725 57.8771 44.525C58.2938 44.375 58.6355 44.3 58.9021 44.3C59.2188 44.3 59.4605 44.4 59.6271 44.6C59.7938 44.7833 59.8771 45.025 59.8771 45.325C59.8771 45.7417 59.6355 46.0833 59.1521 46.35C58.6688 46.6167 58.1105 46.8167 57.4771 46.95C56.8605 47.0667 56.3605 47.125 55.9771 47.125C55.1938 47.125 54.4355 46.9833 53.7021 46.7C52.9688 46.4167 52.3605 46.0167 51.8771 45.5C51.4771 45.0333 51.1605 44.475 50.9271 43.825C50.6938 43.1583 50.5771 42.45 50.5771 41.7ZM56.0271 38.325C55.6605 38.325 55.2938 38.4 54.9271 38.55C54.5605 38.6833 54.2605 38.875 54.0271 39.125C53.7271 39.4417 53.5188 39.7 53.4021 39.9C53.3021 40.0833 53.2355 40.3417 53.2021 40.675C53.6188 40.8083 54.4855 40.875 55.8021 40.875C56.5188 40.875 57.0688 40.7667 57.4521 40.55C57.8521 40.3333 58.0521 40.05 58.0521 39.7C58.0521 39.35 57.8355 39.0333 57.4021 38.75C56.9688 38.4667 56.5105 38.325 56.0271 38.325ZM70.4662 39.425C70.2162 39.425 69.9995 39.3667 69.8162 39.25C69.6495 39.1167 69.4745 38.9417 69.2912 38.725C69.1079 38.5083 68.9079 38.3667 68.6912 38.3C68.4912 38.2333 68.2579 38.2 67.9912 38.2C67.5079 38.2 67.0329 38.35 66.5662 38.65C66.1162 38.9333 65.7412 39.3333 65.4412 39.85C65.1579 40.3667 65.0162 40.9417 65.0162 41.575C65.0162 42.275 65.1495 42.8583 65.4162 43.325C65.6995 43.7917 66.1412 44.2 66.7412 44.55C66.9579 44.6667 67.2079 44.7583 67.4912 44.825C67.7912 44.8917 68.0495 44.925 68.2662 44.925C68.7829 44.925 69.4495 44.7 70.2662 44.25C70.3329 44.2167 70.4579 44.1583 70.6412 44.075C70.8412 43.975 70.9912 43.925 71.0912 43.925C71.2745 43.925 71.4829 44.0167 71.7162 44.2C71.9495 44.3667 72.0662 44.575 72.0662 44.825C72.0662 45.325 71.8495 45.75 71.4162 46.1C70.9995 46.45 70.4745 46.7083 69.8412 46.875C69.2079 47.0417 68.5829 47.125 67.9662 47.125C66.9829 47.125 66.0662 46.9 65.2162 46.45C64.3662 46 63.6912 45.375 63.1912 44.575C62.6912 43.775 62.4412 42.875 62.4412 41.875C62.4412 40.7917 62.6829 39.8167 63.1662 38.95C63.6495 38.0667 64.2995 37.375 65.1162 36.875C65.9495 36.3583 66.8495 36.1 67.8162 36.1C68.7495 36.1 69.6079 36.2833 70.3912 36.65C71.1912 37.0167 71.5912 37.575 71.5912 38.325C71.5912 39.0583 71.2162 39.425 70.4662 39.425ZM75.9932 47.1C75.6598 47.1 75.3765 47.0417 75.1432 46.925C74.9098 46.8083 74.7682 46.6833 74.7182 46.55C74.5348 45.8833 74.4432 45.0083 74.4432 43.925C74.4432 41.925 74.4765 40.3 74.5432 39.05C74.6098 37.5667 74.6432 36.1417 74.6432 34.775C74.6432 34.375 74.5932 33.7917 74.4932 33.025C74.4765 32.8917 74.4515 32.65 74.4182 32.3C74.3848 31.95 74.3682 31.625 74.3682 31.325C74.3682 30.9583 74.4932 30.6667 74.7432 30.45C75.0098 30.2333 75.3515 30.125 75.7682 30.125C76.1015 30.125 76.3682 30.2333 76.5682 30.45C76.7848 30.65 76.8932 30.925 76.8932 31.275C76.8932 31.8083 76.9098 32.5583 76.9432 33.525C76.9765 34.425 76.9932 35.1 76.9932 35.55C76.9932 36.05 76.9765 36.7167 76.9432 37.55C76.9098 38.05 76.8932 38.4167 76.8932 38.65C76.8932 39.3833 76.9015 39.9917 76.9182 40.475C77.5348 39.8583 78.3432 39.1333 79.3432 38.3C80.3432 37.4667 81.1182 36.8833 81.6682 36.55C82.2515 36.2 82.6348 36.025 82.8182 36.025C83.1682 36.025 83.4682 36.1 83.7182 36.25C83.9682 36.4 84.0932 36.6167 84.0932 36.9C84.0932 37.1833 84.0515 37.4083 83.9682 37.575C83.8848 37.7417 83.7348 37.9083 83.5182 38.075L80.6932 40.15C80.9765 40.2667 81.2432 40.525 81.4932 40.925C81.7598 41.325 82.0765 41.8667 82.4432 42.55C82.8598 43.3333 83.2015 43.9167 83.4682 44.3C83.7515 44.6833 84.0348 44.875 84.3182 44.875L84.9432 44.85C85.0598 44.85 85.1598 44.9167 85.2432 45.05C85.3432 45.1833 85.3932 45.375 85.3932 45.625C85.3932 46.0083 85.2015 46.3167 84.8182 46.55C84.4515 46.7833 84.0348 46.9 83.5682 46.9C82.9182 46.9 82.3432 46.65 81.8432 46.15C81.3432 45.6333 80.8682 44.9417 80.4182 44.075L79.8682 42.975C79.6348 42.5083 79.4515 42.175 79.3182 41.975C79.2015 41.775 79.0598 41.6417 78.8932 41.575L76.8932 43.175L76.9932 45.9C76.9932 46.3333 76.8765 46.6417 76.6432 46.825C76.4265 47.0083 76.2098 47.1 75.9932 47.1ZM86.7332 41.275C86.7332 40.2583 86.9582 39.4167 87.4082 38.75C87.8582 38.0667 88.4832 37.425 89.2832 36.825C89.5165 36.6583 89.9082 36.5167 90.4582 36.4C91.0082 36.2667 91.4915 36.2 91.9082 36.2C92.4082 36.2 92.9332 36.3083 93.4832 36.525C94.0499 36.725 94.5082 36.9583 94.8582 37.225C95.4749 37.675 95.8999 38.2 96.1332 38.8C96.3665 39.3833 96.4832 40.0833 96.4832 40.9C96.4832 41.25 96.2832 41.5917 95.8832 41.925C95.4999 42.2417 95.0832 42.4 94.6332 42.4L93.6832 42.375C93.1999 42.375 92.5082 42.3917 91.6082 42.425L91.0832 42.45C90.7165 42.4833 90.4415 42.5 90.2582 42.5C89.9915 42.5 89.6249 42.4667 89.1582 42.4C89.2249 43.1833 89.5165 43.8 90.0332 44.25C90.5499 44.6833 91.1082 44.9 91.7082 44.9C92.7582 44.9 93.4915 44.6917 93.9082 44.275C94.2582 44.025 94.4915 43.8667 94.6082 43.8C94.7249 43.7333 94.9082 43.7 95.1582 43.7C95.4249 43.7 95.6582 43.825 95.8582 44.075C96.0582 44.325 96.1582 44.575 96.1582 44.825C96.1582 45.1083 95.9832 45.4 95.6332 45.7C95.2999 45.9833 94.8415 46.2833 94.2582 46.6C93.9415 46.7333 93.5082 46.85 92.9582 46.95C92.4082 47.05 91.9499 47.1 91.5832 47.1C90.9999 47.1 90.3499 46.9333 89.6332 46.6C88.9165 46.25 88.3832 45.8667 88.0332 45.45C87.6832 45.0333 87.3749 44.4417 87.1082 43.675C86.8582 42.9083 86.7332 42.1083 86.7332 41.275ZM91.7082 40.6C92.8915 40.6 93.7582 40.5583 94.3082 40.475C94.2749 39.9917 94.1249 39.6 93.8582 39.3C93.5915 38.9833 93.2249 38.7167 92.7582 38.5C92.6082 38.4333 92.4749 38.3833 92.3582 38.35C92.2415 38.3167 92.1082 38.3 91.9582 38.3C91.1915 38.3 90.5415 38.5083 90.0082 38.925C89.4915 39.3417 89.1832 39.875 89.0832 40.525C89.9165 40.575 90.7915 40.6 91.7082 40.6ZM102.548 46C102.548 46.2833 102.44 46.5333 102.223 46.75C102.007 46.9667 101.74 47.075 101.423 47.075C100.923 47.075 100.557 46.9833 100.323 46.8C100.09 46.6 99.9734 46.2417 99.9734 45.725C99.9734 45.1083 99.9568 44.3 99.9234 43.3C99.8901 42.4667 99.8734 41.7667 99.8734 41.2C99.8734 40.9333 99.8901 40.5833 99.9234 40.15C99.9568 39.75 99.9734 39.45 99.9734 39.25C99.9234 38.9333 99.7984 38.675 99.5984 38.475C99.3984 38.2583 99.1401 38.15 98.8234 38.15C98.6734 38.15 98.5484 38.0833 98.4484 37.95C98.3484 37.8 98.2984 37.65 98.2984 37.5C98.2984 37.1167 98.4484 36.825 98.7484 36.625C99.0651 36.425 99.4401 36.325 99.8734 36.325C100.773 36.325 101.398 36.8583 101.748 37.925C102.182 37.425 102.673 37.025 103.223 36.725C103.79 36.4083 104.332 36.25 104.848 36.25C105.465 36.25 106.023 36.4167 106.523 36.75C107.04 37.0833 107.298 37.5333 107.298 38.1C107.298 38.4167 107.157 38.7417 106.873 39.075C106.607 39.4083 106.332 39.575 106.048 39.575C105.898 39.575 105.765 39.5417 105.648 39.475C105.548 39.3917 105.423 39.275 105.273 39.125C105.107 38.9583 104.965 38.8417 104.848 38.775C104.732 38.6917 104.598 38.65 104.448 38.65C104.182 38.65 103.932 38.6917 103.698 38.775C103.465 38.8583 103.307 38.9583 103.223 39.075C102.957 39.4917 102.757 39.8667 102.623 40.2C102.507 40.5333 102.448 40.8917 102.448 41.275C102.448 41.5583 102.44 41.7833 102.423 41.95L102.398 43.375C102.398 43.5917 102.407 43.8333 102.423 44.1C102.44 44.3667 102.457 44.5667 102.473 44.7C102.523 45.15 102.548 45.5833 102.548 46Z" fill="black"/>
<path d="M20.5 35C21.3284 35 22 34.3284 22 33.5C22 32.6716 21.3284 32 20.5 32C19.6716 32 19 32.6716 19 33.5C19 34.3284 19.6716 35 20.5 35Z" stroke="black" stroke-linecap="round"/>
<path d="M20.5 41C21.3284 41 22 40.3284 22 39.5C22 38.6716 21.3284 38 20.5 38C19.6716 38 19 38.6716 19 39.5C19 40.3284 19.6716 41 20.5 41Z" stroke="black" stroke-linecap="round"/>
<path d="M20.5 47C21.3284 47 22 46.3284 22 45.5C22 44.6716 21.3284 44 20.5 44C19.6716 44 19 44.6716 19 45.5C19 46.3284 19.6716 47 20.5 47Z" stroke="black" stroke-linecap="round"/>
<path d="M33.5 31H25.5C24.6716 31 24 31.6716 24 32.5C24 33.3284 24.6716 34 25.5 34H33.5C34.3284 34 35 33.3284 35 32.5C35 31.6716 34.3284 31 33.5 31Z" stroke="black" stroke-linecap="round"/>
<path d="M33.5 45H25.5C24.6716 45 24 45.6716 24 46.5C24 47.3284 24.6716 48 25.5 48H33.5C34.3284 48 35 47.3284 35 46.5C35 45.6716 34.3284 45 33.5 45Z" stroke="black" stroke-linecap="round"/>
</svg>
